<svg width="512" height="512" viewBox="0 0 512 512" fill="none" xmlns="http://www.w3.org/2000/svg">
  <defs>
    <linearGradient id="bgGradient" x1="0%" y1="0%" x2="100%" y2="100%">
      <stop offset="0%" style="stop-color:#00F088" />
      <stop offset="100%" style="stop-color:#20C997" />
    </linearGradient>
    <linearGradient id="keycapGradient" x1="0%" y1="0%" x2="0%" y2="100%">
      <stop offset="0%" style="stop-color:#00D778" />
      <stop offset="100%" style="stop-color:#0078D7" />
    </linearGradient>
    <filter id="glow" x="-20%" y="-20%" width="140%" height="140%">
      <feGaussianBlur stdDeviation="5" result="blur" />
      <feComposite in="SourceGraphic" in2="blur" operator="over" />
    </filter>
  </defs>
  <rect x="40" y="40" width="432" height="432" rx="60" fill="#121212" stroke="#2D3748" stroke-width="8"/>
  <rect x="60" y="60" width="392" height="392" rx="50" fill="url(#bgGradient)" />
  <g stroke="#004433" stroke-width="24" stroke-linecap="round">
    <line x1="150" y1="130" x2="150" y2="382" />
    <line x1="362" y1="130" x2="362" y2="382" />
    <line x1="150" y1="256" x2="200" y2="256" />
    <line x1="312" y1="256" x2="362" y2="256" />
  </g>
  <rect x="196" y="160" width="120" height="150" rx="20" fill="#001A1A" />
  <rect x="206" y="170" width="100" height="130" rx="15" fill="url(#keycapGradient)" filter="url(#glow)" />
  <path d="M266 195L236 245H276L246 295" stroke="white" stroke-width="12" stroke-linecap="round" stroke-linejoin="round" filter="url(#glow)"/>
  <path d="M210 360C230 375 282 375 302 360" stroke="#004433" stroke-width="12" stroke-linecap="round" fill="none" />
</svg>
